<svg xmlns="http://www.w3.org/2000/svg" style="isolation:isolate" viewBox="0 0 86.4 76.88" width="86.4" height="76.88"><defs><clipPath id="a"><path d="M0 0h86.4v76.88H0z"/></clipPath></defs><g clip-path="url(#a)"><path d="M49.053 26.26l3.161 8.27-7.869 3.845-3.162-8.262 7.87-3.852" fill="#8CC11D"/><path d="M44.345 38.375l-4.513-1.484-3.161-8.266 4.512 1.488 3.162 8.262z" fill="#557510"/><path d="M41.183 30.113l-4.512-1.488 7.866-3.849 4.516 1.485-7.87 3.852z" fill="#658C14"/><path d="M45.893 17.995l3.16 8.266-7.87 3.852-3.161-8.269 7.87-3.849" fill="#D91921"/><path d="M41.183 30.113l-4.512-1.488-3.163-8.269 4.514 1.488 3.16 8.27" fill="#870E12"/><path d="M38.022 21.844l-4.514-1.488 7.87-3.849 4.515 1.488-7.871 3.849z" fill="#9F1116"/><path d="M34.863 13.578l7.874-3.827 3.156 8.244-7.871 3.849-3.159-8.266z" fill="#4094CD"/><path d="M34.863 13.578l-4.517-1.488 7.88-3.824 4.51 1.485-7.873 3.827z" fill="#2F6A95"/><path d="M38.022 21.844l-4.514-1.488-3.162-8.266 4.517 1.488 3.159 8.266z" fill="#28597E"/><path d="M39.577 1.485l3.16 8.266L34.87 13.6l-3.162-8.266 7.869-3.849z" fill="#E17B10"/><path d="M34.87 13.6l-4.515-1.485-3.16-8.265 4.513 1.484L34.87 13.6z" fill="#8A4A09"/><path d="M31.708 5.334L27.196 3.85l7.869-3.852 4.512 1.487-7.87 3.85m1.598 28.63l-4.515-1.483 7.866-3.853 4.518 1.487-7.869 3.85" fill="#A4580B"/><path d="M36.466 42.235l-4.514-1.491-3.162-8.262 4.515 1.483 3.161 8.27z" fill="#8A4A09"/><path d="M41.174 30.116l3.162 8.266-7.87 3.853-3.16-8.27 7.868-3.849z" fill="#E17B10"/><path d="M38.011 21.851l3.163 8.265-7.869 3.85-3.162-8.266 7.868-3.849z" fill="#9C191E"/><path d="M33.305 33.965l-4.515-1.483-3.163-8.27 4.516 1.488 3.162 8.265z" fill="#721114"/><path d="M30.143 25.7l-4.516-1.488 7.87-3.849 4.514 1.488-7.868 3.85" fill="#7E1317"/><path d="M25.437 37.814l-4.516-1.483 7.87-3.85 4.514 1.484-7.868 3.85" fill="#A00250"/><path d="M28.6 46.08l-4.518-1.487-3.16-8.262 4.515 1.483 3.162 8.266" fill="#880141"/><path d="M33.305 33.965l3.161 8.27L28.6 46.08l-3.162-8.266 7.868-3.849" fill="#D90375"/><path d="M26.982 17.431l7.876-3.824 3.153 8.244-7.868 3.85-3.16-8.27" fill="#33AA7B"/><path d="M26.982 17.431l-4.515-1.484 7.879-3.828 4.512 1.488-7.876 3.824z" fill="#257A59"/><path d="M30.143 25.7l-4.516-1.488-3.16-8.265 4.515 1.484 3.16 8.27" fill="#1F674A"/><path d="M31.697 5.338l3.16 8.27-7.867 3.848-3.16-8.266 7.867-3.852z" fill="#D90375"/><path d="M26.99 17.456l-4.515-1.488-3.16-8.266L23.83 9.19l3.16 8.266z" fill="#880141"/><path d="M23.83 9.19l-4.515-1.488 7.868-3.849 4.514 1.485L23.83 9.19z" fill="#A00250"/><path d="M20.73 49.929l-4.516-1.484-3.16-8.27 4.514 1.488 3.163 8.266" fill="#918F90"/><path d="M17.568 41.663l-4.513-1.487 7.866-3.845 4.516 1.483-7.869 3.85" fill="#ABA9AA"/><path d="M25.437 37.814l-4.516-1.483-3.16-8.27 4.514 1.488 3.162 8.265z" fill="#918F90"/><path d="M22.275 29.55l-4.515-1.49 7.867-3.849 4.516 1.488-7.868 3.85" fill="#ABA9AA"/><path d="M17.568 41.663l-4.513-1.487L9.89 31.91l4.515 1.488 3.162 8.265" fill="#918F90"/><path d="M14.406 33.398L9.89 31.91l7.87-3.849 4.514 1.488-7.87 3.849" fill="#ABA9AA"/><path d="M26.99 17.456l3.153 8.244-7.868 3.85-3.154-8.245 7.869-3.849z" fill="#8CC11D"/><path d="M22.275 29.55l-4.515-1.49-3.153-8.24 4.514 1.484 3.154 8.244" fill="#557510"/><path d="M19.12 21.305l-4.513-1.484 7.868-3.853 4.515 1.488-7.87 3.849z" fill="#658C14"/><path d="M23.83 9.19l3.16 8.266-7.87 3.849-3.16-8.27 7.87-3.845z" fill="#D91921"/><path d="M19.12 21.305l-4.513-1.484-3.162-8.27 4.515 1.485 3.16 8.269z" fill="#870E12"/><path d="M15.96 13.036l-4.515-1.485 7.87-3.849L23.83 9.19l-7.87 3.846z" fill="#9F1116"/><path d="M11.243 25.132l-4.512-1.487 7.876-3.824 4.514 1.484-7.878 3.827z" fill="#ABA9AA"/><path d="M14.406 33.398L9.89 31.91l-3.16-8.265 4.512 1.487 3.163 8.266" fill="#918F90"/><path d="M15.96 13.036l3.16 8.269-7.866 3.849-3.162-8.266 7.868-3.852z" fill="#9C191E"/><path d="M11.254 25.154L6.741 23.67 3.578 15.4l4.514 1.488 3.162 8.266z" fill="#721114"/><path d="M8.092 16.888L3.578 15.4l7.867-3.849 4.515 1.485-7.868 3.852z" fill="#7E1317"/><path d="M33.305 33.965L30.143 25.7l-7.868 3.85-3.154-8.245-7.878 3.827 3.163 8.266-7.868 3.849 3.16 8.265 7.87-3.849 3.163 8.266 7.868-3.849-3.162-8.266 7.868-3.849z" fill="#EAE9EA"/><path d="M9.698 45.512l-4.514-1.488-3.158-8.262 4.512 1.485 3.16 8.265z" fill="#918F90"/><path d="M6.538 37.247l-4.512-1.485L9.89 31.91l4.515 1.488-7.868 3.849" fill="#ABA9AA"/><path d="M1.77 57.103h1.856l-1.77 7.665H0l1.77-7.665zm7.37 2.911H7.359l.207-.902a.846.846 0 0 0 .032-.25.543.543 0 0 0-.054-.26.373.373 0 0 0-.14-.147.589.589 0 0 0-.186-.065 1.272 1.272 0 0 0-.195-.016c-.225 0-.372.046-.445.136-.072.09-.13.197-.174.322l-.912 3.937-.043.202a.901.901 0 0 0-.022.2c0 .095.02.172.06.229a.391.391 0 0 0 .146.131.526.526 0 0 0 .174.054c.058.007.108.01.151.01a.72.72 0 0 0 .294-.053.597.597 0 0 0 .299-.289c.025-.054.044-.098.059-.136.066-.187.123-.385.174-.596.05-.21.098-.42.141-.63h1.9l-.272 1.107a4.907 4.907 0 0 1-.298.883c-.112.24-.268.438-.467.592a1.941 1.941 0 0 1-.76.34 5.256 5.256 0 0 1-1.167.107c-.246 0-.48-.012-.7-.038a2.228 2.228 0 0 1-.929-.315 1.458 1.458 0 0 1-.569-.652 1.198 1.198 0 0 1-.104-.514v-.12c0-.051.006-.116.017-.196.01-.079.029-.18.055-.303.025-.123.06-.275.102-.457l.738-3.223c.058-.261.122-.486.191-.674.068-.188.136-.347.206-.477.108-.213.266-.396.462-.532.13-.094.276-.17.439-.228.161-.058.326-.103.494-.136.161-.032.325-.054.489-.066a5.47 5.47 0 0 1 1.172.039c.267.036.495.094.684.173.094.044.19.098.287.163.223.15.386.373.462.63.05.152.076.33.076.532 0 .167-.022.347-.065.543l-.228.945m1.27-2.911h4.538l-.304 1.325h-1.281l-1.466 6.34H10.03l1.465-6.34h-1.4l.315-1.325zm9.999 1.38l-.39 1.672h.661c.217 0 .395-.034.532-.104.137-.069.235-.23.294-.483l.119-.51.017-.098a.788.788 0 0 0 .005-.097.378.378 0 0 0-.055-.218.345.345 0 0 0-.14-.114.58.58 0 0 0-.201-.043 5.53 5.53 0 0 0-.223-.005h-.619zm-.694 2.975l-.446 1.964h.804a.904.904 0 0 0 .33-.05.444.444 0 0 0 .196-.14.742.742 0 0 0 .114-.222c.03-.087.054-.185.076-.294l.152-.651a.78.78 0 0 0 .032-.24c0-.144-.052-.24-.157-.292a.85.85 0 0 0-.375-.075h-.726zm-.859-4.355h2.204c.268 0 .541.008.82.022.278.015.53.06.754.136.225.076.41.198.553.364.145.167.218.405.218.716 0 .11-.009.23-.027.364a4.847 4.847 0 0 1-.07.397l-.081.357c-.026.109-.05.192-.072.25-.05.152-.11.281-.178.386-.07.105-.158.197-.26.271a1.38 1.38 0 0 1-.375.185 3.22 3.22 0 0 1-.533.114c.088.022.185.05.294.086.108.037.212.091.308.163a.889.889 0 0 1 .245.283.9.9 0 0 1 .098.444c0 .088-.018.232-.054.435-.04.217-.083.434-.13.65-.05.227-.108.452-.175.675a4.655 4.655 0 0 1-.173.498 1.26 1.26 0 0 1-.694.685c-.312.123-.703.184-1.173.184h-3.257l1.758-7.665zm8.023 4.105c.007-.044.02-.103.037-.18.02-.076.037-.152.055-.227.03-.127.05-.256.06-.386a.813.813 0 0 0-.017-.163.252.252 0 0 0-.07-.13.397.397 0 0 0-.207-.125.945.945 0 0 0-.205-.027.62.62 0 0 0-.321.076.573.573 0 0 0-.206.228c-.054.1-.098.23-.13.386l-.114.548h1.118zm1.4 1.682c-.062.229-.128.457-.2.684-.078.243-.21.466-.386.651-.174.202-.413.37-.716.5-.304.13-.714.195-1.227.195a7.765 7.765 0 0 1-.305-.01 2.744 2.744 0 0 1-.423-.06 3.544 3.544 0 0 1-.462-.136 1.636 1.636 0 0 1-.428-.239 1.483 1.483 0 0 1-.33-.401c-.098-.167-.148-.405-.148-.717 0-.195.03-.458.087-.787.058-.33.129-.666.212-1.01.083-.344.166-.66.25-.95.082-.289.146-.488.19-.596.06-.134.131-.263.212-.386.102-.153.233-.286.385-.39.198-.135.416-.238.646-.305.264-.083.595-.125.993-.125.174 0 .378.013.613.039.236.025.46.086.673.184.214.097.395.24.543.428.148.19.223.446.223.771 0 .123-.01.246-.027.37a4.212 4.212 0 0 1-.071.369l-.13.624c-.049.227-.1.453-.152.679h-2.78c-.043.166-.086.354-.13.564-.044.21-.065.376-.065.5 0 .065.01.122.033.173.086.145.246.217.477.217a.606.606 0 0 0 .293-.06.5.5 0 0 0 .18-.168.95.95 0 0 0 .114-.266c.029-.105.058-.219.086-.342h1.77m3.539-2.78c.116-.223.23-.41.342-.558.202-.274.488-.475.815-.57.162-.05.36-.094.59-.13l-.433 1.617a1.522 1.522 0 0 0-.179-.01h-.18a1.754 1.754 0 0 0-.58.08.839.839 0 0 0-.37.262c-.106.136-.187.29-.239.455a8.44 8.44 0 0 0-.19.679l-.65 2.833h-1.715l1.346-5.82h1.715l-.272 1.163m4.202-1.162l-.88 3.8c-.035.138-.06.248-.075.331a1.286 1.286 0 0 0-.022.223c0 .145.043.251.131.32a.441.441 0 0 0 .282.103c.116 0 .213-.03.293-.092a.746.746 0 0 0 .196-.233c.051-.097.093-.2.125-.305.03-.1.056-.201.08-.303l.88-3.844h1.748l-1.346 5.819h-1.737l.13-.608c-.074.081-.152.16-.233.234a1.951 1.951 0 0 1-.316.233c-.28.168-.601.255-.928.25-.108 0-.227-.013-.357-.038a1.037 1.037 0 0 1-.37-.153.927.927 0 0 1-.293-.32c-.08-.137-.12-.317-.12-.542.008-.219.037-.437.087-.651l.967-4.224h1.758zm4.473-.564c.05-.218.105-.41.163-.575a.99.99 0 0 1 .271-.42c.124-.11.293-.194.51-.247.217-.056.51-.082.88-.082.311 0 .65.01 1.02.032l-.25 1.064h-.374a.83.83 0 0 0-.233.027.375.375 0 0 0-.14.076.355.355 0 0 0-.088.125c-.022.051-.05.139-.082.266a6.13 6.13 0 0 0-.07.298h.76l-.25 1.042h-.76l-1.097 4.777h-1.737l1.097-4.777h-.695l.24-1.042h.705l.13-.564m3.8 4.397a4.527 4.527 0 0 0-.074.277 1.305 1.305 0 0 0-.035.298c0 .152.049.251.145.298a.643.643 0 0 0 .42.06.413.413 0 0 0 .176-.065.513.513 0 0 0 .199-.288c.032-.12.048-.218.048-.298 0-.11-.02-.19-.06-.244a1.093 1.093 0 0 0-.157-.169 7.236 7.236 0 0 0-.239-.185l-.363-.27c-.128-.095-.24-.178-.342-.25a2.732 2.732 0 0 1-.163-.12 2.19 2.19 0 0 1-.473-.488 1.026 1.026 0 0 1-.167-.587c0-.086.009-.179.026-.277.037-.196.092-.389.163-.575.027-.077.062-.152.104-.222.158-.282.412-.496.76-.64.346-.146.76-.218 1.237-.218.282 0 .546.028.792.081.246.055.46.138.64.25.183.112.325.252.43.418.105.167.158.362.158.587 0 .101-.01.2-.027.298l-.06.298h-1.64l.06-.234a.961.961 0 0 0 .038-.232.464.464 0 0 0-.011-.065.345.345 0 0 0-.049-.115.313.313 0 0 0-.125-.103.58.58 0 0 0-.25-.043.469.469 0 0 0-.303.087.547.547 0 0 0-.212.38l-.006.097c0 .101.03.187.088.255.057.07.141.144.25.223.114.087.209.154.282.201.112.072.221.15.325.233l.483.348c.141.101.257.204.348.309.09.105.159.215.206.331.046.116.07.253.07.413a2.307 2.307 0 0 1-.114.684c-.04.124-.087.245-.14.368-.048.114-.112.22-.19.316-.146.173-.37.33-.674.472-.303.14-.712.212-1.226.212-.413 0-.72-.029-.923-.088a3.34 3.34 0 0 1-.424-.14c-.275-.124-.477-.277-.608-.461-.13-.186-.195-.419-.195-.701 0-.138.012-.263.038-.375.026-.111.056-.225.092-.341h1.672m7.077-1.922c.026-.106.047-.213.065-.32a.867.867 0 0 0 .011-.125.493.493 0 0 0-.102-.293c-.07-.094-.19-.141-.364-.141-.029 0-.07.001-.12.005a.498.498 0 0 0-.326.185.703.703 0 0 0-.119.266l-.618 2.66c-.013.068-.02.137-.022.206a.408.408 0 0 0 .125.32c.091.079.209.12.33.114a.541.541 0 0 0 .391-.158c.11-.105.185-.258.228-.462l.521-2.257zm-.184-3.757l-.565 2.465c.064-.087.133-.171.207-.25.08-.086.171-.168.277-.244.251-.18.553-.273.862-.266.153 0 .301.021.446.065.145.043.273.115.385.212.113.098.205.223.277.374.072.152.109.34.109.565 0 .138-.019.326-.055.565-.036.238-.08.49-.136.755-.053.264-.11.52-.168.77-.058.25-.105.454-.14.613-.052.218-.115.452-.191.706a2.702 2.702 0 0 1-.325.705 1.83 1.83 0 0 1-.56.548c-.23.149-.525.223-.879.223-.21 0-.383-.03-.52-.093a1.098 1.098 0 0 1-.338-.221 1.105 1.105 0 0 1-.2-.266 3.19 3.19 0 0 1-.103-.212l-.152.651h-1.76l1.77-7.665h1.759m5.733 0l-.294 1.303H54.9l.304-1.303h1.715zm-2.15 1.846h1.726l-1.346 5.819h-1.715l1.336-5.82m3.462-1.845h1.737L58.2 64.768h-1.737l1.77-7.665m4.927 3.617c.014-.047.025-.094.033-.142a.837.837 0 0 0 .011-.141c0-.13-.036-.24-.109-.332-.072-.09-.187-.135-.347-.135a.484.484 0 0 0-.282.076.685.685 0 0 0-.18.184.874.874 0 0 0-.108.244 3.498 3.498 0 0 0-.06.245l-.499 2.171-.048.238a1.175 1.175 0 0 0-.028.229c0 .167.05.278.147.337.09.055.193.085.299.086.115 0 .21-.027.287-.08a.636.636 0 0 0 .184-.202.994.994 0 0 0 .109-.266c.025-.098.05-.186.071-.266l.52-2.246zm.836-3.617h1.749l-1.77 7.665h-1.747l.173-.705a6.778 6.778 0 0 1-.223.255c-.083.09-.18.177-.293.26a1.519 1.519 0 0 1-.385.206c-.145.055-.31.082-.5.082-.08 0-.187-.01-.325-.033a1.066 1.066 0 0 1-.407-.157 1.149 1.149 0 0 1-.353-.358c-.101-.156-.152-.368-.152-.635 0-.095.015-.235.043-.424.029-.188.069-.397.12-.624l.157-.711c.05-.227.102-.453.157-.679.052-.206.094-.381.13-.526.037-.145.062-.232.077-.26.05-.188.114-.38.19-.576a2.18 2.18 0 0 1 .298-.533c.124-.159.28-.289.472-.39.192-.1.436-.152.734-.152.241.003.479.053.7.147.126.054.242.13.347.228a.983.983 0 0 1 .244.374l.564-2.454zm4.311 1.846l-.88 3.8c-.029.109-.054.22-.075.331-.013.074-.02.148-.021.223 0 .145.043.251.13.32a.441.441 0 0 0 .282.103c.116 0 .213-.03.293-.092a.733.733 0 0 0 .196-.233c.052-.097.093-.2.125-.305.032-.109.06-.21.08-.303l.88-3.844h1.748l-1.346 5.819h-1.737l.13-.608a3.43 3.43 0 0 1-.233.234c-.091.083-.196.16-.315.233-.28.169-.601.255-.928.25a1.876 1.876 0 0 1-.358-.038 1.056 1.056 0 0 1-.37-.153.936.936 0 0 1-.293-.32c-.08-.137-.119-.317-.119-.542.007-.219.036-.437.086-.651l.967-4.224h1.758m7.133 5.819h-1.726l.933-4.092a1.24 1.24 0 0 0 .033-.271.446.446 0 0 0-.054-.24.332.332 0 0 0-.13-.125.41.41 0 0 0-.142-.043l-.076-.006a.502.502 0 0 0-.303.087.841.841 0 0 0-.305.429 1.813 1.813 0 0 0-.043.18l-.944 4.081h-1.694l1.335-5.82h1.705l-.142.577a2.01 2.01 0 0 1 .489-.402c.145-.085.3-.155.46-.207.192-.059.392-.092.593-.097.08 0 .18.01.304.033a.99.99 0 0 1 .358.141.93.93 0 0 1 .299.315c.083.137.125.326.125.564 0 .101-.008.2-.022.293a2.787 2.787 0 0 1-.055.272l-.998 4.331m5.016-4.179a.92.92 0 0 0 .022-.174.474.474 0 0 0-.049-.228.395.395 0 0 0-.271-.201.807.807 0 0 0-.147-.016.669.669 0 0 0-.375.13c-.126.087-.226.278-.298.576l-.478 2.05-.048.256a1.328 1.328 0 0 0-.028.266.597.597 0 0 0 .05.26.325.325 0 0 0 .12.142.36.36 0 0 0 .145.054c.05.008.09.011.12.011.21 0 .366-.076.472-.228.103-.147.175-.313.212-.489l.553-2.409zm-.803 3.474a3.048 3.048 0 0 1-.212.255c-.083.09-.181.177-.293.26a1.476 1.476 0 0 1-.907.287c-.137 0-.278-.02-.423-.065a1.156 1.156 0 0 1-.401-.216 1.028 1.028 0 0 1-.277-.435 1.796 1.796 0 0 1-.082-.564c0-.174.022-.392.065-.657.044-.264.098-.537.163-.82.065-.282.134-.557.206-.825.073-.268.134-.488.185-.662.072-.254.157-.489.255-.705a2.36 2.36 0 0 1 .353-.57c.137-.163.302-.292.494-.386.192-.094.422-.141.69-.141.21 0 .39.033.542.097.152.066.277.145.375.24a.984.984 0 0 1 .21.282c.037.067.06.141.067.217l.173-.706h1.748l-1.357 5.884c-.109.456-.212.837-.31 1.14a1.971 1.971 0 0 1-.472.792c-.233.243-.53.417-.857.5-.333.087-.674.13-1.02.13a7.429 7.429 0 0 1-.516-.027 2.596 2.596 0 0 1-.712-.164 1.644 1.644 0 0 1-.63-.433c-.18-.198-.27-.475-.27-.83 0-.109.009-.209.027-.299.018-.09.041-.186.07-.288h1.726c-.029.109-.05.196-.065.26l-.032.153a.448.448 0 0 0-.01.081v.06c0 .101.02.18.059.234a.366.366 0 0 0 .14.119c.055.026.109.04.163.043.09.009.181.007.271-.005a.37.37 0 0 0 .175-.081.727.727 0 0 0 .178-.216c.06-.098.11-.236.152-.416l.359-1.523m-63.637 4.99h4.614l-.326 1.422-3.821 4.841h2.703l-.326 1.412h-4.765l.325-1.412 3.865-4.917h-2.573l.304-1.346m7.686 4.114c.011-.06.023-.12.038-.18l.054-.226c.018-.077.033-.15.043-.223a.813.813 0 0 0 0-.326.263.263 0 0 0-.07-.13.397.397 0 0 0-.207-.125.946.946 0 0 0-.205-.028.607.607 0 0 0-.32.077.553.553 0 0 0-.206.228c-.056.1-.099.23-.131.386l-.114.547h1.118zm1.4 1.683c-.058.217-.124.445-.2.684-.078.243-.21.466-.386.651-.174.203-.413.37-.717.5-.303.13-.713.195-1.226.195-.072 0-.174-.004-.304-.01a2.757 2.757 0 0 1-.424-.06 3.485 3.485 0 0 1-.461-.136 1.613 1.613 0 0 1-.429-.239 1.465 1.465 0 0 1-.33-.401c-.098-.168-.148-.406-.148-.718 0-.194.03-.456.087-.787.059-.328.129-.665.213-1.009.082-.343.166-.66.249-.95.055-.201.118-.4.19-.596.06-.134.131-.264.212-.386.09-.14.218-.271.385-.39.198-.135.416-.238.646-.305.264-.083.595-.125.993-.125.205.002.41.015.614.039.235.025.459.086.673.184.213.098.394.24.542.429.148.188.223.445.223.77 0 .123-.01.246-.027.37a4.589 4.589 0 0 1-.07.368c-.044.21-.087.418-.132.625-.048.227-.098.453-.151.679h-2.779c-.044.166-.087.354-.13.564-.044.21-.066.376-.066.5 0 .065.01.122.033.173.087.145.246.217.477.217a.61.61 0 0 0 .294-.06.497.497 0 0 0 .179-.168.95.95 0 0 0 .114-.266c.03-.104.058-.219.086-.342h1.77m5.201 1.878h-1.725l.933-4.092c.021-.089.032-.18.032-.272a.451.451 0 0 0-.053-.239.335.335 0 0 0-.131-.125.41.41 0 0 0-.142-.043.947.947 0 0 0-.075-.006.505.505 0 0 0-.304.087.826.826 0 0 0-.305.429 1.813 1.813 0 0 0-.043.18l-.944 4.08h-1.693l1.334-5.818h1.705l-.14.576c.14-.159.305-.295.488-.402.166-.094.32-.163.46-.206.192-.059.392-.093.593-.099.078 0 .18.011.303.034a.926.926 0 0 1 .657.455c.083.138.125.327.125.565a2.515 2.515 0 0 1-.076.565l-.999 4.33m3.322-7.674h1.704l-.434 1.856h.771l-.25 1.042h-.76l-.705 3.03c-.028.11-.043.223-.044.336 0 .152.057.24.169.266.111.026.291.038.537.038l-.25 1.107c-.383 0-.718-.004-1.004-.01a3.028 3.028 0 0 1-.722-.093.843.843 0 0 1-.44-.26c-.096-.12-.146-.288-.146-.506 0-.093.007-.18.021-.26.015-.08.041-.181.077-.304l.803-3.344h-.695l.24-1.042h.705l.423-1.856m4.473 3.017c.116-.223.23-.41.343-.558.111-.148.234-.268.368-.359.134-.09.283-.16.446-.21.162-.052.36-.095.59-.131l-.433 1.617c-.06-.007-.12-.01-.18-.01h-.179c-.238 0-.432.026-.58.081a.835.835 0 0 0-.37.26 1.461 1.461 0 0 0-.238.456c-.061.184-.125.41-.19.679l-.651 2.833h-1.716l1.346-5.819h1.716l-.272 1.162m4.364 1.932c-.195.059-.402.125-.618.201a1.71 1.71 0 0 0-.478.233.646.646 0 0 0-.18.234 2.08 2.08 0 0 0-.179.722c0 .102.027.186.082.255.054.068.154.103.298.103a.717.717 0 0 0 .402-.114c.11-.071.215-.149.315-.233l.358-1.401zm1.161 2.063l-.02.13a.707.707 0 0 0-.012.13c0 .13.016.22.049.267.033.046.07.092.114.135h-1.976l.152-.608a8.654 8.654 0 0 1-.314.26 2.95 2.95 0 0 1-.359.245c-.13.076-.267.137-.412.185-.145.047-.304.07-.478.07-.029 0-.106-.005-.227-.016a1.17 1.17 0 0 1-.392-.113.994.994 0 0 1-.369-.315c-.108-.145-.163-.347-.163-.607 0-.086.015-.208.044-.368.064-.35.166-.691.304-1.019.072-.166.152-.298.239-.4.087-.101.193-.192.32-.27.126-.08.297-.16.51-.239.213-.08.487-.17.82-.271.332-.1.752-.224 1.259-.368.029-.116.058-.247.087-.396.029-.148.043-.243.043-.286 0-.152-.054-.244-.163-.277a1.084 1.084 0 0 0-.304-.048.797.797 0 0 0-.298.048.463.463 0 0 0-.19.152.952.952 0 0 0-.13.266c-.042.126-.082.253-.12.38h-1.65c.065-.252.123-.467.174-.64.05-.174.109-.323.173-.448.066-.124.143-.229.234-.312.09-.084.2-.16.33-.225.204-.103.439-.179.707-.23.267-.052.553-.077.857-.077.246 0 .492.018.739.054.246.036.462.102.651.195.188.095.342.225.462.39.118.168.178.377.178.63 0 .11-.009.218-.026.327a3.62 3.62 0 0 1-.071.325l-.772 3.344m2.888-7.003h1.737l-1.77 7.665h-1.736l1.77-7.665m3.148 5.679a3.766 3.766 0 0 0-.074.277 1.289 1.289 0 0 0-.034.297c0 .153.048.252.144.299a.643.643 0 0 0 .42.06.417.417 0 0 0 .177-.065.511.511 0 0 0 .198-.288c.032-.12.049-.218.049-.298 0-.11-.02-.19-.06-.245a1.143 1.143 0 0 0-.158-.168 7.236 7.236 0 0 0-.239-.185l-.363-.271c-.127-.093-.24-.177-.342-.25a2.422 2.422 0 0 1-.162-.12 2.186 2.186 0 0 1-.473-.487 1.027 1.027 0 0 1-.168-.587c0-.086.009-.178.027-.276.018-.098.041-.196.07-.294.03-.097.06-.19.093-.281.032-.091.067-.165.103-.223.159-.283.412-.496.76-.64.347-.146.76-.219 1.237-.219.282 0 .546.029.792.083.247.053.46.137.64.25.183.112.325.25.43.417.105.167.158.362.158.587 0 .101-.01.2-.027.298-.019.1-.039.199-.06.298h-1.64l.06-.234a.961.961 0 0 0 .038-.232.501.501 0 0 0-.01-.066.31.31 0 0 0-.174-.218.579.579 0 0 0-.25-.042.471.471 0 0 0-.304.087.529.529 0 0 0-.212.38l-.005.097a.382.382 0 0 0 .087.255c.057.07.141.144.25.223.115.087.209.154.282.201.112.072.221.15.325.233l.484.347c.14.102.256.206.347.31.09.105.16.215.206.331.047.116.07.254.07.413a2.387 2.387 0 0 1-.113.683c-.04.124-.087.246-.141.37a1.383 1.383 0 0 1-.19.315c-.145.173-.37.33-.674.472-.303.14-.712.212-1.226.212-.413 0-.72-.029-.923-.087a3.511 3.511 0 0 1-.424-.141c-.275-.124-.477-.277-.607-.461-.13-.186-.196-.42-.196-.701 0-.138.012-.262.038-.375.026-.111.056-.225.092-.341h1.672m8.36-.032c-.06.253-.124.502-.197.748a2.024 2.024 0 0 1-.358.685 1.702 1.702 0 0 1-.852.58 3.636 3.636 0 0 1-1.395.14 3.725 3.725 0 0 1-.445-.064 2.442 2.442 0 0 1-.478-.153 1.423 1.423 0 0 1-.744-.705 1.385 1.385 0 0 1-.124-.614c0-.123.016-.285.049-.488.073-.449.165-.894.277-1.335l.157-.63c.047-.188.087-.343.12-.466.014-.067.034-.132.059-.196.108-.333.255-.595.44-.787.184-.192.385-.335.602-.429.217-.094.44-.154.668-.179.228-.025.443-.039.646-.039.622 0 1.114.13 1.476.386.362.257.543.62.543 1.092 0 .144-.015.285-.043.423a7.846 7.846 0 0 1-.098.402H56.65l.103-.418c.032-.134.049-.24.049-.321a.384.384 0 0 0-.109-.282c-.072-.072-.18-.109-.325-.109-.24 0-.403.075-.494.223a1.856 1.856 0 0 0-.211.537l-.544 2.324a1.021 1.021 0 0 0-.021.206c0 .08.007.14.02.18a.226.226 0 0 0 .045.08c.08.131.213.196.402.196a.573.573 0 0 0 .298-.07.575.575 0 0 0 .19-.202c.05-.087.09-.19.119-.309.03-.12.062-.255.098-.407h1.748m4.051-5.646l-.586 2.508c.064-.079.141-.162.228-.249.091-.091.191-.173.298-.244.265-.177.577-.27.895-.266.153 0 .3.02.44.06.141.039.268.102.38.19.115.09.208.205.272.336.069.137.103.308.103.51 0 .08-.007.163-.021.25l-.045.25-.998 4.32H61.32l.945-4.092c.021-.087.032-.175.032-.26 0-.168-.047-.285-.141-.354a.52.52 0 0 0-.315-.103.514.514 0 0 0-.429.201.675.675 0 0 0-.092.174.937.937 0 0 0-.044.157l-.977 4.277h-1.726l1.77-7.665h1.726m3.083 1.847h1.672c-.015.195-.023.354-.027.477s-.01.237-.017.342c-.007.11-.013.22-.016.33l-.017.457c-.022.416-.045.832-.07 1.248-.01.196-.028.417-.049.662-.021.247-.05.558-.086.935l.423-1.347 1.118-3.105h1.954c-.015.276-.027.496-.038.662-.011.167-.018.317-.021.451-.004.134-.01.272-.017.413-.007.14-.014.324-.021.548-.015.21-.026.392-.033.548l-.027.478c-.011.162-.027.35-.049.558-.022.21-.048.475-.076.794.058-.21.114-.423.168-.635.055-.214.132-.452.233-.712l1.151-3.105h1.813l-2.627 5.819h-1.867c0-.5.001-.92.006-1.265.006-.634.027-1.267.064-1.9.018-.322.041-.714.071-1.177l-.146.455c-.04.124-.086.256-.136.397-.147.405-.3.809-.457 1.21-.203.506-.376.949-.52 1.325-.122.319-.246.637-.37.955h-1.91l-.076-5.819m10.997 2.258c.007-.043.02-.103.037-.18.02-.075.037-.15.055-.226.03-.127.05-.256.06-.386a.813.813 0 0 0-.017-.163.252.252 0 0 0-.07-.13.395.395 0 0 0-.206-.125.955.955 0 0 0-.206-.028.616.616 0 0 0-.32.077.569.569 0 0 0-.207.228c-.054.1-.097.23-.13.386l-.114.547h1.118zm1.4 1.683c-.058.217-.124.445-.2.684-.076.24-.205.455-.386.651-.173.203-.412.37-.716.5s-.714.195-1.227.195c-.073 0-.174-.004-.304-.01a2.744 2.744 0 0 1-.423-.06 3.544 3.544 0 0 1-.462-.136 1.613 1.613 0 0 1-.429-.239 1.483 1.483 0 0 1-.33-.401c-.098-.168-.147-.406-.147-.718 0-.194.03-.456.086-.787.059-.328.13-.665.212-1.009.083-.343.167-.66.25-.95.083-.289.147-.488.19-.596.05-.116.121-.245.212-.386.09-.14.218-.271.385-.39.167-.12.382-.222.646-.305.264-.083.595-.125.993-.125.205.002.41.015.614.039.235.025.459.086.672.184.214.098.395.24.543.429.149.188.223.445.223.77 0 .123-.009.246-.027.37a4.186 4.186 0 0 1-.07.368l-.131.625c-.048.227-.099.453-.152.679h-2.779c-.044.166-.087.354-.13.564a2.557 2.557 0 0 0-.066.5c0 .065.011.122.034.173.086.145.245.217.477.217a.613.613 0 0 0 .292-.06.5.5 0 0 0 .18-.168.95.95 0 0 0 .114-.266c.03-.104.058-.219.087-.342h1.77m4.222-5.787l-.293 1.303h-1.726l.304-1.303h1.715zm-2.15 1.846h1.727l-1.346 5.819h-1.715l1.335-5.819m2.757.001h4.017l-.25 1.064-2.876 3.582h2.236l-.272 1.172h-4.32l.249-1.107 2.931-3.626h-1.964l.25-1.086" fill="#231F20"/></g></svg>